<?xml version="1.0" standalone="no"?>
<!DOCTYPE svg PUBLIC "-//W3C//DTD SVG 20010904//EN"
 "http://www.w3.org/TR/2001/REC-SVG-20010904/DTD/svg10.dtd">
<svg version="1.0" xmlns="http://www.w3.org/2000/svg"
 width="128.000000pt" height="128.000000pt" viewBox="0 0 128.000000 128.000000"
 preserveAspectRatio="xMidYMid meet">
<metadata>
Created by potrace 1.14, written by Peter Selinger 2001-2017
</metadata>
<g transform="translate(0.000000,128.000000) scale(0.100000,-0.100000)"
fill="#000000" stroke="none">
<path d="M420 1210 c0 -17 -3 -19 -19 -10 -30 16 -44 12 -38 -10 6 -23 -5 -35
-63 -70 -29 -18 -49 -41 -70 -82 -15 -32 -44 -76 -63 -99 -65 -75 -58 -114 21
-122 23 -2 43 -6 45 -8 1 -2 14 -18 30 -35 l27 -30 -26 -35 c-33 -45 -58 -103
-45 -107 7 -2 7 -12 0 -28 -12 -33 -12 -47 1 -39 6 4 10 -8 10 -29 0 -28 4
-36 18 -36 11 0 23 -10 29 -23 18 -38 65 -89 110 -117 l43 -27 -21 -26 c-29
-38 -81 -50 -129 -31 -75 30 -78 9 -5 -27 39 -19 75 -40 81 -48 6 -8 16 -11
23 -7 6 4 17 4 24 -1 7 -5 25 -15 41 -21 l28 -13 -26 31 c-29 35 -31 42 -15
73 27 52 36 56 86 41 25 -8 64 -14 85 -14 21 0 52 -7 68 -15 17 -9 32 -15 35
-15 32 1 32 0 24 -47 -12 -63 -43 -94 -103 -100 -25 -3 -50 -11 -56 -18 -9
-10 5 -12 67 -11 43 2 83 -1 90 -6 7 -5 14 -5 18 2 3 5 27 10 53 10 l47 1 -37
20 c-39 20 -42 25 -40 69 3 65 12 88 43 100 16 7 38 22 47 34 10 11 43 34 73
49 81 40 160 115 199 188 18 34 28 59 23 56 -5 -3 -15 -2 -23 3 -12 7 -12 12
3 28 23 25 22 35 -2 22 -27 -14 -51 -13 -51 3 0 8 -16 13 -44 14 -56 2 -81 15
-186 98 -47 37 -97 72 -112 77 -26 9 -27 11 -21 71 10 112 -36 205 -121 247
-25 12 -54 35 -63 51 -22 37 -43 45 -43 17 l0 -21 -23 21 c-29 28 -47 28 -47
2z"/>
</g>
</svg>
